<svg width="233" height="29" viewBox="0 0 233 29" fill="none" xmlns="http://www.w3.org/2000/svg">
<path d="M0.667969 16.2227C0.667969 13.3281 1.02539 10.8672 1.74023 8.83984C2.45508 6.8125 3.5918 5.19531 5.15039 3.98828C6.70898 2.76953 8.75391 1.94336 11.2852 1.50977C12.5508 1.28711 13.834 1.10547 15.1348 0.964844C16.4473 0.8125 17.8066 0.642578 19.2129 0.455078L19.8281 5.14844C19.2188 5.21875 18.5566 5.29492 17.8418 5.37695C17.127 5.45898 16.4062 5.54688 15.6797 5.64062C14.9531 5.72266 14.25 5.81055 13.5703 5.9043C12.8906 5.98633 12.2754 6.06836 11.7246 6.15039C10.5293 6.33789 9.5332 6.63086 8.73633 7.0293C7.93945 7.42773 7.33008 8.06055 6.9082 8.92773C6.48633 9.79492 6.22852 11.043 6.13477 12.6719H6.39844C6.67969 12.2266 7.07812 11.7754 7.59375 11.3184C8.10938 10.8496 8.74805 10.4629 9.50977 10.1582C10.2715 9.8418 11.1504 9.68359 12.1465 9.68359C13.7168 9.68359 15.0762 10.0059 16.2246 10.6504C17.373 11.2949 18.2578 12.2559 18.8789 13.5332C19.5117 14.7988 19.8281 16.3809 19.8281 18.2793C19.8281 20.5059 19.418 22.3691 18.5977 23.8691C17.7891 25.3574 16.6641 26.4766 15.2227 27.2266C13.7812 27.9766 12.1113 28.3516 10.2129 28.3516C8.75977 28.3516 7.44727 28.0879 6.27539 27.5605C5.10352 27.0332 4.0957 26.2539 3.25195 25.2227C2.41992 24.1914 1.78125 22.9258 1.33594 21.4258C0.890625 19.9141 0.667969 18.1797 0.667969 16.2227ZM10.5293 24.0098C11.291 24.0098 11.9531 23.8457 12.5156 23.5176C13.0898 23.1777 13.5352 22.627 13.8516 21.8652C14.1797 21.0918 14.3438 20.0547 14.3438 18.7539C14.3438 17.1836 14.0801 15.9414 13.5527 15.0273C13.0371 14.1016 12.1523 13.6387 10.8984 13.6387C10.1367 13.6387 9.42188 13.8262 8.75391 14.2012C8.09766 14.5645 7.54102 14.9863 7.08398 15.4668C6.62695 15.9355 6.31055 16.334 6.13477 16.6621C6.13477 17.5879 6.20508 18.4902 6.3457 19.3691C6.49805 20.2363 6.73828 21.0215 7.06641 21.7246C7.39453 22.4277 7.83984 22.9844 8.40234 23.3945C8.97656 23.8047 9.68555 24.0098 10.5293 24.0098ZM29.4434 8.34766V16.1172C29.4434 16.5156 29.4258 17.0195 29.3906 17.6289C29.3672 18.2266 29.332 18.8359 29.2852 19.457C29.2383 20.0781 29.1914 20.6348 29.1445 21.127C29.0977 21.6191 29.0625 21.9531 29.0391 22.1289L38.1094 8.34766H44.5605V28H39.375V20.1602C39.375 19.5156 39.3984 18.8066 39.4453 18.0332C39.4922 17.248 39.5449 16.5098 39.6035 15.8184C39.6621 15.127 39.7031 14.6055 39.7266 14.2539L30.6914 28H24.2578V8.34766H29.4434ZM57.3574 7.97852C58.7754 7.97852 60.0996 8.16602 61.3301 8.54102C62.5605 8.9043 63.5566 9.47266 64.3184 10.2461C65.0801 11.0078 65.4609 11.9922 65.4609 13.1992C65.4609 14.3828 65.1035 15.3262 64.3887 16.0293C63.6738 16.7207 62.7246 17.2188 61.541 17.5234V17.6992C62.373 17.8984 63.123 18.168 63.791 18.5078C64.4707 18.8477 65.0098 19.3164 65.4082 19.9141C65.8066 20.5117 66.0059 21.2969 66.0059 22.2695C66.0059 23.3594 65.6602 24.3672 64.9688 25.293C64.2773 26.207 63.2168 26.9453 61.7871 27.5078C60.3691 28.0703 58.5469 28.3516 56.3203 28.3516C55.2656 28.3516 54.2695 28.3047 53.332 28.2109C52.4062 28.1172 51.5566 27.9824 50.7832 27.8066C50.0098 27.6191 49.3359 27.3965 48.7617 27.1387V22.709C49.5703 23.084 50.5664 23.4297 51.75 23.7461C52.9453 24.0625 54.2168 24.2207 55.5645 24.2207C56.5371 24.2207 57.416 24.1504 58.2012 24.0098C58.998 23.8691 59.625 23.6348 60.082 23.3066C60.5508 22.9668 60.7852 22.5156 60.7852 21.9531C60.7852 21.4258 60.5801 20.9922 60.1699 20.6523C59.7715 20.3008 59.1562 20.043 58.3242 19.8789C57.5039 19.7031 56.4609 19.6152 55.1953 19.6152H53.1211V15.9062H55.0898C56.8711 15.9062 58.248 15.7598 59.2207 15.4668C60.1934 15.1738 60.6797 14.6348 60.6797 13.8496C60.6797 13.2168 60.3691 12.7422 59.748 12.4258C59.127 12.1094 58.1016 11.9512 56.6719 11.9512C55.7461 11.9512 54.7266 12.0625 53.6133 12.2852C52.5 12.4961 51.457 12.8008 50.4844 13.1992L48.9023 9.45508C50.0391 9.02148 51.2695 8.66992 52.5938 8.40039C53.9297 8.11914 55.5176 7.97852 57.3574 7.97852ZM75.5684 8.34766V15.9062H83.0566V8.34766H88.418V28H83.0566V19.8965H75.5684V28H70.207V8.34766H75.5684ZM102.146 7.97852C103.963 7.97852 105.527 8.33008 106.84 9.0332C108.152 9.72461 109.166 10.7324 109.881 12.0566C110.596 13.3809 110.953 14.998 110.953 16.9082V19.5098H98.2793C98.3379 21.0215 98.7891 22.2109 99.6328 23.0781C100.488 23.9336 101.672 24.3613 103.184 24.3613C104.438 24.3613 105.586 24.2324 106.629 23.9746C107.672 23.7168 108.744 23.3301 109.846 22.8145V26.9629C108.873 27.4434 107.854 27.7949 106.787 28.0176C105.732 28.2402 104.449 28.3516 102.938 28.3516C100.969 28.3516 99.2227 27.9883 97.6992 27.2617C96.1875 26.5352 94.998 25.4277 94.1309 23.9395C93.2754 22.4512 92.8477 20.5762 92.8477 18.3145C92.8477 16.0176 93.2344 14.1074 94.0078 12.584C94.793 11.0488 95.8828 9.90039 97.2773 9.13867C98.6719 8.36523 100.295 7.97852 102.146 7.97852ZM102.182 11.793C101.139 11.793 100.271 12.127 99.5801 12.7949C98.9004 13.4629 98.5078 14.5117 98.4023 15.9414H105.926C105.914 15.1445 105.768 14.4355 105.486 13.8145C105.217 13.1934 104.807 12.7012 104.256 12.3379C103.717 11.9746 103.025 11.793 102.182 11.793ZM123.293 28.3516C121.348 28.3516 119.689 28 118.318 27.2969C116.947 26.582 115.904 25.4805 115.189 23.9922C114.475 22.5039 114.117 20.5996 114.117 18.2793C114.117 15.877 114.521 13.9199 115.33 12.4082C116.15 10.8848 117.281 9.76562 118.723 9.05078C120.176 8.33594 121.857 7.97852 123.768 7.97852C125.127 7.97852 126.299 8.11328 127.283 8.38281C128.279 8.64062 129.146 8.95117 129.885 9.31445L128.303 13.4629C127.459 13.123 126.674 12.8477 125.947 12.6367C125.221 12.4141 124.494 12.3027 123.768 12.3027C122.83 12.3027 122.051 12.5254 121.43 12.9707C120.809 13.4043 120.346 14.0605 120.041 14.9395C119.736 15.8184 119.584 16.9199 119.584 18.2441C119.584 19.5449 119.748 20.623 120.076 21.4785C120.404 22.334 120.879 22.9727 121.5 23.3945C122.121 23.8047 122.877 24.0098 123.768 24.0098C124.881 24.0098 125.871 23.8633 126.738 23.5703C127.605 23.2656 128.449 22.8438 129.27 22.3047V26.8926C128.449 27.4082 127.588 27.7773 126.686 28C125.795 28.2344 124.664 28.3516 123.293 28.3516ZM163.301 8.34766V28H157.922V12.373H150.803V28H145.441V8.34766H163.301ZM186.521 28H181.16V12.373H176.221C175.975 15.2559 175.682 17.7109 175.342 19.7383C175.002 21.7656 174.568 23.418 174.041 24.6953C173.514 25.9609 172.857 26.8867 172.072 27.4727C171.287 28.0586 170.32 28.3516 169.172 28.3516C168.539 28.3516 167.971 28.3047 167.467 28.2109C166.975 28.1172 166.523 27.9766 166.113 27.7891V23.5C166.371 23.6055 166.646 23.6934 166.939 23.7637C167.232 23.8223 167.531 23.8516 167.836 23.8516C168.176 23.8516 168.498 23.7168 168.803 23.4473C169.107 23.1777 169.395 22.7148 169.664 22.0586C169.934 21.3906 170.186 20.4707 170.42 19.2988C170.666 18.127 170.889 16.6445 171.088 14.8516C171.287 13.0586 171.475 10.8906 171.65 8.34766H186.521V28ZM200.215 7.94336C202.852 7.94336 204.873 8.51758 206.279 9.66602C207.686 10.8145 208.389 12.5605 208.389 14.9043V28H204.645L203.607 25.3281H203.467C202.904 26.0312 202.33 26.6055 201.744 27.0508C201.158 27.4961 200.484 27.8242 199.723 28.0352C198.961 28.2461 198.035 28.3516 196.945 28.3516C195.785 28.3516 194.742 28.1289 193.816 27.6836C192.902 27.2383 192.182 26.5586 191.654 25.6445C191.127 24.7188 190.863 23.5469 190.863 22.1289C190.863 20.043 191.596 18.5078 193.061 17.5234C194.525 16.5273 196.723 15.9766 199.652 15.8711L203.062 15.7656V14.9043C203.062 13.873 202.793 13.1172 202.254 12.6367C201.715 12.1562 200.965 11.916 200.004 11.916C199.055 11.916 198.123 12.0508 197.209 12.3203C196.295 12.5898 195.381 12.9297 194.467 13.3398L192.691 9.71875C193.734 9.16797 194.9 8.73438 196.189 8.41797C197.49 8.10156 198.832 7.94336 200.215 7.94336ZM203.062 18.8945L200.988 18.9648C199.254 19.0117 198.047 19.3223 197.367 19.8965C196.699 20.4707 196.365 21.2266 196.365 22.1641C196.365 22.9844 196.605 23.5703 197.086 23.9219C197.566 24.2617 198.193 24.4316 198.967 24.4316C200.115 24.4316 201.082 24.0918 201.867 23.4121C202.664 22.7324 203.062 21.7656 203.062 20.5117V18.8945ZM219.287 8.34766V15.9062H226.775V8.34766H232.137V28H226.775V19.8965H219.287V28H213.926V8.34766H219.287Z" fill="black"/>
<path d="M132.1 20.5469V16.1523H141.539V20.5469H132.1Z" fill="#A6B57E"/>
</svg>
